# xmcd CD database file
#
# Track frame offsets:
#	182
#	17102
#	29590
#	45772
#	59347
#	78587
#	91270
#	112637
#	130165
#	147027
#	154395
#	171422
#
# Disc length: 2436 seconds
#
# Revision: 3
# Processed by: cddbd v1.4PL0 Copyright (c) Steve Scherf et al.
# Submitted via: CDex 1.50beta10
#
DISCID=9309820c
DTITLE=Pino Daniele - Pino Daniele
DYEAR=1979
DGENRE=Italiana
TTITLE0=Je stò vicino a te
TTITLE1=Chi tene 'o mare
TTITLE2=Basta na jurnata e sole
TTITLE3=Je so' pazzo
TTITLE4=Ninnananinnanoè
TTITLE5=Chillo è nu buono guaglione
TTITLE6=Ue man!
TTITLE7=Donna Cuncetta
TTITLE8=Il mare
TTITLE9=Viento
TTITLE10=Putesse essere allero
TTITLE11=E cerca 'e me capì'
EXTD=1979 EMI Italiana SpA YEAR: 1979
EXTT0=
EXTT1=
EXTT2=
EXTT3=
EXTT4=
EXTT5=
EXTT6=
EXTT7=
EXTT8=
EXTT9=
EXTT10=
EXTT11=
PLAYORDER=
